# xmcd
#
# Track frame offsets:
#	150
#	17395
#	31335
#	44452
#	59382
#	74072
#	87230
#	101850
#	117777
#	132697
#	149132
#	162877
#	191652
#	208472
#	221192
#	235742
#	250410
#	265022
#	279785
#	293725
#	309392
#
# Disc length: 4338 seconds
#
# Revision: 0
# Processed by: cddbd v1.5.2PL0 Copyright (c) Steve Scherf et al.
# Submitted via: EasyCDDAExtractor 16.0.6.1
#
DISCID=4b10f015
DTITLE=Ξυλούρης Νίκος - Τα χρόνια στην Κρήτη-Ν. Ξυλούρης
DYEAR=1997
DGENRE=Κρητική
TTITLE0=Ξυλούρης Νίκος - Όσο βαρούν τα σίδερα [λύρα Ν.Ξυλούρης]
TTITLE1=Ξυλούρης Νίκος - Εγώ 'μαι του μπαξέ πουλί [συρτός, λύρα Ν.Ξυλούρης]
TTITLE2=Ξυλούρης Νίκος - Κρητικοπούλα μου [καλαματιανός, λύρα Ν.Ξυλούρης]
TTITLE3=Ξυλούρης Νίκος - Δεν κλαίνε οι δυνατές καρδιές [συρτός, λύρα Ν.Ξυλούρη
TTITLE3=ς]
TTITLE4=Άνευ ερμηνευτού - Μαλεβιζιώτικος χορός [λύρα Ν.Ξυλούρης]
TTITLE5=Ξυλούρης Νίκος - Ίντά 'χετε γύρου-γύρου [ριζίτικο, λύρα Ν.Ξυλούρης]
TTITLE6=Ξυλούρης Νίκος - Ζήσω πεθάνω στη ζωή [αργός συρτός, λύρα Ν.Ξυλούρης]
TTITLE7=Ξυλούρης Νίκος - Ζαμάνια τό 'χα να σε δω [συρτός χανιώτικος, λύρα Ν.Ξυ
TTITLE7=λούρης]
TTITLE8=Ξυλούρης Νίκος - Όντε θα δεις ντελικανή [κοντυλιές, λύρα Ν.Ξυλούρης]
TTITLE9=Ξυλούρης Νίκος-χορωδία - Μάνα κι αν έρθουν οι φίλοι μου [ριζίτικο, λύρ
TTITLE9=α Ν.Ξυλούρης]
TTITLE10=Άνευ ερμηνευτού - Πεντοζάλια [λύρα Ν.Ξυλούρης]
TTITLE11=Ξυλούρης Νίκος - Εις του Βαρσάμου το νερό [ριζίτικο, λύρα Ν.Ξυλούρης]
TTITLE12=Ξυλούρης Νίκος - Μιά παντρεμένη αγαπώ (Φίλεντεμ) [συρτός, λύρα Ν.Ξυλο
TTITLE12=ύρης]
TTITLE13=Ξυλούρης Νίκος - Απόψε μουσαφίρης σου [σούστα, λύρα Ν.Ξυλούρης]
TTITLE14=Ξυλούρης Νίκος - Στο ρίζωμα του χαρακιού [συρτός, λύρα Ν.Ξυλούρης]
TTITLE15=Ξυλούρης Νίκος - Σύννεφα φέρετε βροχή [συρτός, λύρα Ν.Ξυλούρης]
TTITLE16=Ξυλούρης Νίκος - Κρύψε το μυστικό σου [συρτός, λύρα Ν.Ξυλούρης]
TTITLE17=Ξυλούρης Νίκος - Μιά πέρδικα συχνοτσιμπά [κοντυλιές, λύρα Ν.Ξυλούρης]
TTITLE18=Ξυλούρης Νίκος - Η κακομοίρα η μάννα μου [συρτός, λύρα Ν.Ξυλούρης]
TTITLE19=Ξυλούρης Νίκος - Σώσε με γιατρέ μου [αμανές, λύρα Ν.Ξυλούρης]
TTITLE20=Ξυλούρης Νίκος - Μαλεβιζιώτικος καστρινός χορός [πηδηχτός, λύρα Ν.Ξυλ
TTITLE20=ούρης]
EXTD=
EXTT0=
EXTT1=
EXTT2=
EXTT3=
EXTT4=
EXTT5=
EXTT6=
EXTT7=
EXTT8=
EXTT9=
EXTT10=
EXTT11=
EXTT12=
EXTT13=
EXTT14=
EXTT15=
EXTT16=
EXTT17=
EXTT18=
EXTT19=
EXTT20=
PLAYORDER=
